<svg xmlns="http://www.w3.org/2000/svg" xmlns:xlink="http://www.w3.org/1999/xlink" width="20" height="17.898" viewBox="0 0 20 17.898">
  <defs>
    <clipPath id="clip-path">
      <rect id="Rectangle_6244" data-name="Rectangle 6244" width="20" height="17.898" fill="none"/>
    </clipPath>
  </defs>
  <g id="icon--heart" clip-path="url(#clip-path)">
    <path id="Path_26815" data-name="Path 26815" d="M10,17.9a1.4,1.4,0,0,1-.879-.314A43.609,43.609,0,0,1,3.406,12.7,15.739,15.739,0,0,1,.723,9.145,5.445,5.445,0,0,1,0,6.546,6.82,6.82,0,0,1,2.489,1.267,5.44,5.44,0,0,1,5.964,0,5.627,5.627,0,0,1,9.928,1.664l.019.018L10,1.708A5.763,5.763,0,0,1,14.02,0a5.462,5.462,0,0,1,3.5,1.266A6.838,6.838,0,0,1,20,6.547a5.433,5.433,0,0,1-.723,2.6,15.475,15.475,0,0,1-2.683,3.55,43.186,43.186,0,0,1-5.707,4.887,1.449,1.449,0,0,1-.866.317ZM3.182,2.124A5.71,5.71,0,0,0,1.108,6.531a4.451,4.451,0,0,0,.567,2.076,14.451,14.451,0,0,0,2.515,3.306,41.784,41.784,0,0,0,5.607,4.8.281.281,0,0,0,.192.076.287.287,0,0,0,.224-.083,41.687,41.687,0,0,0,5.608-4.8,14.62,14.62,0,0,0,2.506-3.306,4.42,4.42,0,0,0,.566-2.073,5.712,5.712,0,0,0-2.074-4.408,4.324,4.324,0,0,0-2.783-1.016,4.206,4.206,0,0,0-2.116.518,4.574,4.574,0,0,0-1.464,1.305L10,3.55l-.448-.619A4.692,4.692,0,0,0,8.081,1.626a4.166,4.166,0,0,0-2.117-.518A4.288,4.288,0,0,0,3.191,2.124Z" transform="translate(0 0)" fill="#423e3e"/>
  </g>
</svg>
