<?xml version="1.0" encoding="utf-8"?>
<!-- Generator: Adobe Illustrator 26.3.1, SVG Export Plug-In . SVG Version: 6.00 Build 0)  -->
<svg version="1.1" id="Layer_1" xmlns="http://www.w3.org/2000/svg" xmlns:xlink="http://www.w3.org/1999/xlink" x="0px" y="0px"
	 viewBox="0 0 14.5 13" style="enable-background:new 0 0 14.5 13;" xml:space="preserve">
<style type="text/css">
	.st0{fill:#332F2F;}
</style>
<path id="PLP_heart" class="st0" d="M7.3,13c-0.2,0-0.5-0.1-0.7-0.2C5,11.6,3.5,10.3,2.1,8.9C1.5,8.3,1,7.5,0.6,6.8
	c-0.8-1.5-0.7-3.3,0.2-4.6c0.6-1.1,1.7-1.8,2.9-2C5-0.2,6.3,0.3,7.2,1.2C8,0.4,9,0,10.1,0h0c0.9,0,1.8,0.3,2.6,0.9
	c1.1,0.9,1.8,2.4,1.8,3.8c0,0.7-0.2,1.3-0.5,1.9c-0.5,0.9-1.2,1.8-1.9,2.6c-1.3,1.3-2.6,2.5-4.1,3.5C7.7,12.9,7.5,13,7.3,13"/>
</svg>
