<svg xmlns="http://www.w3.org/2000/svg" width="33.744" height="37.28" viewBox="0 0 33.744 37.28">
  <g id="Group_85" data-name="Group 85" transform="translate(0.35 0.35)">
    <path id="Path_26805" data-name="Path 26805" d="M218.6,87.2a8.6,8.6,0,1,1,8.6-8.6A8.624,8.624,0,0,1,218.6,87.2Zm0-15.764a7.165,7.165,0,1,0,7.165,7.165A7.186,7.186,0,0,0,218.6,71.433Z" transform="translate(-202.967 -70)" fill="#fff" stroke="#fff" stroke-width="0.7"/>
    <path id="Path_26806" data-name="Path 26806" d="M170.4,302.364H157.5v-.717a12.936,12.936,0,0,1,12.9-12.9c.717,0,1.433.072,2.15.143a.731.731,0,0,1-.287,1.433,15.13,15.13,0,0,0-1.863-.143,11.463,11.463,0,0,0-11.465,10.748H170.4a.717.717,0,0,1,0,1.433Z" transform="translate(-157.5 -267.844)" fill="#fff" stroke="#fff" stroke-width="0.7"/>
    <path id="Path_26807" data-name="Path 26807" d="M358.384,314.268a8.384,8.384,0,1,1,8.384-8.384A8.36,8.36,0,0,1,358.384,314.268Zm0-15.243a6.859,6.859,0,1,0,6.859,6.859A6.831,6.831,0,0,0,358.384,299.024Z" transform="translate(-333.724 -277.688)" fill="#fff" stroke="#fff" stroke-width="0.7"/>
    <path id="Path_26808" data-name="Path 26808" d="M435.807,337.643a1.155,1.155,0,0,1-.645-.215.908.908,0,0,1-.287-.645.652.652,0,0,1,.287-.573.814.814,0,0,1,.573-.215.989.989,0,0,1,.641.215.748.748,0,0,1,.291.573.882.882,0,0,1-.358.716A.835.835,0,0,1,435.807,337.643Zm.86,1.791v4.944a1.287,1.287,0,0,1-.215.788.7.7,0,0,1-.645.287.778.778,0,0,1-.645-.287,1.287,1.287,0,0,1-.215-.788v-4.944a1.287,1.287,0,0,1,.215-.788.908.908,0,0,1,.645-.287.778.778,0,0,1,.645.287A1.026,1.026,0,0,1,436.666,339.434Z" transform="translate(-411.111 -312.528)" fill="#fff" stroke="#fff" stroke-width="0.3"/>
  </g>
</svg>
