<svg xmlns="http://www.w3.org/2000/svg" xmlns:xlink="http://www.w3.org/1999/xlink" width="29.446" height="40" viewBox="0 0 29.446 40">
  <defs>
    <clipPath id="clip-path">
      <rect id="Rectangle_9" data-name="Rectangle 9" width="29.446" height="40" fill="#423e3e"/>
    </clipPath>
  </defs>
  <g id="icon--locator" clip-path="url(#clip-path)">
    <path id="Path_26" data-name="Path 26" d="M14.723,0A14.729,14.729,0,0,0,0,14.723c0,7.863,13.351,24.222,13.931,24.908a.949.949,0,0,0,.792.369,1.031,1.031,0,0,0,.792-.369c.58-.686,13.931-17.045,13.931-24.908A14.729,14.729,0,0,0,14.723,0m0,37.256C10.554,31.979,2.111,20.211,2.111,14.723a12.612,12.612,0,0,1,25.224,0c0,6.069-9.71,18.839-12.612,22.533" fill="#423e3e"/>
    <path id="Path_27" data-name="Path 27" d="M20.06,11.3a8.76,8.76,0,1,0,8.76,8.76,8.772,8.772,0,0,0-8.76-8.76m0,15.409a6.649,6.649,0,1,1,6.649-6.649,6.655,6.655,0,0,1-6.649,6.649" transform="translate(-5.337 -5.337)" fill="#423e3e"/>
  </g>
</svg>
