<svg id="FB" xmlns="http://www.w3.org/2000/svg" xmlns:xlink="http://www.w3.org/1999/xlink" width="20" height="20" viewBox="0 0 20 20">
  <defs>
    <clipPath id="clip-path">
      <path id="Path_26204" data-name="Path 26204" d="M0-16a4,4,0,0,1,4-4H16a4,4,0,0,1,4,4V-4a4,4,0,0,1-4,4H4A4,4,0,0,1,0-4Zm4-2a2,2,0,0,0-2,2V-4A2,2,0,0,0,4-2h6V-9H9a1,1,0,0,1-1-1,1,1,0,0,1,1-1h1v-1.5A3.5,3.5,0,0,1,13.5-16h.6a1,1,0,0,1,1,1,1,1,0,0,1-1,1h-.6a1.5,1.5,0,0,0-1.061.439A1.5,1.5,0,0,0,12-12.5V-11h2.1a1,1,0,0,1,1,1,1,1,0,0,1-1,1H12v7h4a2,2,0,0,0,2-2V-16a2,2,0,0,0-2-2Z" fill="none"/>
    </clipPath>
    <clipPath id="clip-path-2">
      <path id="Path_26203" data-name="Path 26203" d="M-447,315H58V-340H-447Z" fill="none"/>
    </clipPath>
  </defs>
  <g id="Group_47612" data-name="Group 47612" transform="translate(0 20)" clip-path="url(#clip-path)">
    <g id="Group_47611" data-name="Group 47611" clip-path="url(#clip-path-2)">
      <path id="Path_26202" data-name="Path 26202" d="M-5-25H25V5H-5Z"/>
    </g>
  </g>
</svg>
