<svg xmlns="http://www.w3.org/2000/svg" xmlns:xlink="http://www.w3.org/1999/xlink" width="31.67" height="35.702" viewBox="0 0 31.67 35.702">
  <defs>
    <clipPath id="clip-path">
      <rect id="Rectangle_5928" data-name="Rectangle 5928" width="31.67" height="35.702" fill="#423e3e"/>
    </clipPath>
  </defs>
  <g id="icon--phone" clip-path="url(#clip-path)">
    <path id="Path_26591" data-name="Path 26591" d="M25.817,22.341a2.857,2.857,0,0,0-4.023-.313l-.8.7a3.809,3.809,0,0,1-2.391.892h-.02a2.486,2.486,0,0,1-1.923-.905l-5.156-6.25a2.642,2.642,0,0,1-.547-2.133,3.7,3.7,0,0,1,1.258-2.2l.8-.7a2.953,2.953,0,0,0,1.035-1.951,2.674,2.674,0,0,0,.012-.307,2.871,2.871,0,0,0-.629-1.839L8.472,1.258c-.027-.027-.043-.045-.058-.062a.981.981,0,0,0-.064-.076,2.779,2.779,0,0,0-2-.869H6.308a2.843,2.843,0,0,0-2.025.856C2.073,3.321.429,6.367.276,7.825-.127,12.5,4.121,19.5,8.231,24.5c4.136,5.032,10.176,10.554,14.724,10.963h.208c1.39,0,4.322-.981,7.018-2.8a2.891,2.891,0,0,0,1.228-2.028,3.01,3.01,0,0,0-.65-2.27Zm4.053,8.092a1.387,1.387,0,0,1-.588.984,13.839,13.839,0,0,1-6.069,2.559l-.135,0c-3.35-.33-8.727-4.416-13.71-10.41C4.41,17.558,1.415,11.438,1.737,7.976A8.894,8.894,0,0,1,2.771,5.514,18.143,18.143,0,0,1,5.326,2.18a1.44,1.44,0,0,1,1.021-.437H6.4a1.425,1.425,0,0,1,1.035.54l4.93,5.979a1.483,1.483,0,0,1,.3.987,2.111,2.111,0,0,1-.072.309,1.382,1.382,0,0,1-.46.677l-.789.694a5.026,5.026,0,0,0-1.8,3.123,4.012,4.012,0,0,0,.831,3.313l5.12,6.25a3.983,3.983,0,0,0,3.057,1.46h.1a4.87,4.87,0,0,0,3.222-1.215l.845-.711a1.3,1.3,0,0,1,.712-.32,1.422,1.422,0,0,1,1.212.456l4.91,6.036a1.328,1.328,0,0,1,.318,1.11" transform="translate(-0.006 -0.005)" fill="#423e3e"/>
    <path id="Path_26592" data-name="Path 26592" d="M30.941,28.208,26,22.179l0,0a3.1,3.1,0,0,0-4.361-.346l-.8.705a3.57,3.57,0,0,1-2.235.832h-.018a2.242,2.242,0,0,1-1.733-.816L11.693,16.3a2.4,2.4,0,0,1-.5-1.937,3.456,3.456,0,0,1,1.178-2.057l.8-.7A3.192,3.192,0,0,0,14.287,9.5a2.945,2.945,0,0,0,.015-.332,3.125,3.125,0,0,0-.685-1.992L8.683,1.112l-.054-.041A.217.217,0,0,1,8.6,1.039,1.415,1.415,0,0,0,8.5.926,3.007,3.007,0,0,0,6.34,0H6.3A3.089,3.089,0,0,0,4.1.93C1.857,3.18.184,6.295.027,7.8c-.41,4.747,3.868,11.819,8.01,16.855C12.2,29.721,18.3,35.285,22.938,35.7h.219c1.426,0,4.417-1,7.156-2.841a3.136,3.136,0,0,0,1.331-2.2,3.254,3.254,0,0,0-.7-2.454m-1.318,2.186a1.149,1.149,0,0,1-.488.819,13.623,13.623,0,0,1-5.947,2.515h-.1C19.807,33.4,14.5,29.354,9.55,23.406,4.631,17.443,1.657,11.394,1.972,8.012a8.675,8.675,0,0,1,1-2.378A17.906,17.906,0,0,1,5.5,2.344a1.2,1.2,0,0,1,.847-.362h.042a1.18,1.18,0,0,1,.853.449l4.929,5.978a1.227,1.227,0,0,1,.247.808,2.076,2.076,0,0,1-.063.264,1.152,1.152,0,0,1-.382.562l-.793.7A5.272,5.272,0,0,0,9.295,14a4.255,4.255,0,0,0,.883,3.511l5.12,6.25a4.222,4.222,0,0,0,3.244,1.55h.1a5.109,5.109,0,0,0,3.38-1.274l.845-.71a1.062,1.062,0,0,1,.582-.264,1.185,1.185,0,0,1,1,.373l4.91,6.035a1.094,1.094,0,0,1,.263.919" transform="translate(0 0)" fill="#423e3e"/>
  </g>
</svg>
