<svg xmlns="http://www.w3.org/2000/svg" width="14.49" height="13" viewBox="0 0 14.49 13">
  <path id="PLP_heart" data-name="PLP heart" d="M7.258,13a1.131,1.131,0,0,1-.678-.225A29.784,29.784,0,0,1,2.146,8.911,11.188,11.188,0,0,1,.554,6.753,4.377,4.377,0,0,1,.789,2.114,4.15,4.15,0,0,1,3.681.066,4.063,4.063,0,0,1,7.246,1.194,4.072,4.072,0,0,1,10.114,0h.005a3.982,3.982,0,0,1,2.562.934A4.968,4.968,0,0,1,14.49,4.783a3.966,3.966,0,0,1-.526,1.908,11.177,11.177,0,0,1-1.936,2.557,30.819,30.819,0,0,1-4.092,3.506A1.112,1.112,0,0,1,7.258,13M4.381,1a2.981,2.981,0,0,0-.523.046A3.189,3.189,0,0,0,1.636,2.643a3.405,3.405,0,0,0-.209,3.623,10.2,10.2,0,0,0,1.447,1.96,28.9,28.9,0,0,0,4.3,3.742l.016-.014.17-.014a29.862,29.862,0,0,0,3.964-3.4A10.209,10.209,0,0,0,13.092,6.2a2.959,2.959,0,0,0,.4-1.426A3.967,3.967,0,0,0,12.042,1.7l0,0A2.986,2.986,0,0,0,10.118,1h0a3.061,3.061,0,0,0-2.179.919,3.127,3.127,0,0,0-.285.34l-.406.558-.4-.559A3.043,3.043,0,0,0,4.381,1" transform="translate(0)" fill="#332f2f"/>
</svg>
