<svg id="Pinterest" xmlns="http://www.w3.org/2000/svg" xmlns:xlink="http://www.w3.org/1999/xlink" width="21" height="21" viewBox="0 0 21 21">
  <defs>
    <clipPath id="clip-path">
      <path id="Path_26198" data-name="Path 26198" d="M2.5-11a8.5,8.5,0,0,1,5.951-8.106,8.5,8.5,0,0,1,9.519,3.243A8.5,8.5,0,0,1,17.733-5.81a8.5,8.5,0,0,1-9.66,2.793q.865-2.32,1.679-4.658A3.778,3.778,0,0,0,12-7a4.555,4.555,0,0,0,4.48-3.8A5.32,5.32,0,0,0,11-17a6.35,6.35,0,0,0-4.087,1.562A5.258,5.258,0,0,0,5-11.5a3.192,3.192,0,0,0,.791,2.206,1.01,1.01,0,0,0,1.416,0,1,1,0,0,0,.022-1.392c-.786-.98.25-2.6.994-3.241A4.348,4.348,0,0,1,11-15a3.329,3.329,0,0,1,3.52,3.8A2.562,2.562,0,0,1,12-9a1.657,1.657,0,0,1-1.54-.792c.154-.484.285-.924.379-1.282a2.023,2.023,0,0,0-.355-2.179,1.3,1.3,0,0,0-1.431-.141A2.1,2.1,0,0,0,8-11.5a5.741,5.741,0,0,0,.317,1.832Q7.349-6.781,6.279-3.93A8.492,8.492,0,0,1,2.5-11ZM11-21.5A10.5,10.5,0,0,0,.5-11,10.5,10.5,0,0,0,11-.5,10.5,10.5,0,0,0,21.5-11,10.5,10.5,0,0,0,11-21.5Z" fill="none"/>
    </clipPath>
    <clipPath id="clip-path-2">
      <path id="Path_26197" data-name="Path 26197" d="M-311,529H194V-126H-311Z" fill="none"/>
    </clipPath>
  </defs>
  <g id="Group_47606" data-name="Group 47606" transform="translate(-0.5 21.5)" clip-path="url(#clip-path)">
    <g id="Group_47605" data-name="Group 47605" clip-path="url(#clip-path-2)">
      <path id="Path_26196" data-name="Path 26196" d="M-4.5-26.5h31v31h-31Z"/>
    </g>
  </g>
</svg>
