<svg id="twitter" xmlns="http://www.w3.org/2000/svg" xmlns:xlink="http://www.w3.org/1999/xlink" width="20.948" height="17.503" viewBox="0 0 20.948 17.503">
  <defs>
    <clipPath id="clip-path">
      <path id="Path_26201" data-name="Path 26201" d="M13.849-16.342a3.086,3.086,0,0,0-2.388,1.13,3.086,3.086,0,0,0-.639,2.563,1,1,0,0,1-.248.876,1,1,0,0,1-.855.312,11.167,11.167,0,0,1-5.834-2.544,3.74,3.74,0,0,0,.693,1.912l.679,1-1.115.475-.215.092a5.663,5.663,0,0,0,.567.555,8.22,8.22,0,0,0,.91.676l.011.007h0l1.548.939-1.62.81q-.12.06-.24.108A5.34,5.34,0,0,0,6.246-6.7l1.39.657-1.164,1a5.1,5.1,0,0,1-2.1,1.173A8.748,8.748,0,0,0,8.5-2.84a8.606,8.606,0,0,0,8.676-8.534v-.52l.425-.3A4.459,4.459,0,0,0,19.07-14.01H16.91l-.272-.57a3.086,3.086,0,0,0-2.788-1.762Zm-11.28,7.3a1,1,0,0,0-.237.8A3.664,3.664,0,0,0,3.454-6.227a6.061,6.061,0,0,0,.46.411l-.075.02a6.678,6.678,0,0,1-2.211.04,1,1,0,0,0-1,.563A1,1,0,0,0,.815-4.062,10.716,10.716,0,0,0,8.5-.84,10.615,10.615,0,0,0,19.163-10.874a7.367,7.367,0,0,0,2.283-3.883,1,1,0,0,0-.176-.864,1,1,0,0,0-.792-.389H18.125a5.086,5.086,0,0,0-5.511-2.18A5.086,5.086,0,0,0,8.78-13.671a9.214,9.214,0,0,1-4.721-2.975,1,1,0,0,0-.9-.345,1,1,0,0,0-.773.575,5.251,5.251,0,0,0-.046,4.4l-.234.1a1,1,0,0,0-.57,1.193A4.279,4.279,0,0,0,2.568-9.042Z" fill="none"/>
    </clipPath>
    <clipPath id="clip-path-2">
      <path id="Path_26200" data-name="Path 26200" d="M-175,386H330V-269H-175Z" fill="none"/>
    </clipPath>
  </defs>
  <g id="Group_47609" data-name="Group 47609" transform="translate(-0.53 18.342)" clip-path="url(#clip-path)">
    <g id="Group_47608" data-name="Group 47608" clip-path="url(#clip-path-2)">
      <path id="Path_26199" data-name="Path 26199" d="M-4.47-23.342H26.479V4.16H-4.47Z"/>
    </g>
  </g>
</svg>
