<svg width="84" height="35" viewBox="0 0 84 35" xmlns="http://www.w3.org/2000/svg">
  <path d="M57.0193 30.9129l3.6013-9.1293.5942.4682c2.1067 1.6386 4.6276 2.953 7.3286 2.953 1.1524 0 3.007-.4681 3.007-1.9267 0-1.4585-1.5485-1.5845-2.6109-1.8006l-2.3588-.4322c-4.5916-.8103-8.445-3.5112-8.445-8.571C58.1357 4.8035 65.1222.5 72.1627.5c3.6913 0 7.0765.9003 10.2457 2.827l-3.1692 8.283c-2.0167-1.3685-4.2855-2.449-6.8244-2.449-1.0264 0-2.539.3782-2.539 1.7107 0 1.2064 1.4586 1.3685 2.359 1.5846l2.6649.5942c4.9698 1.1164 8.571 3.7813 8.571 9.2733 0 7.7248-7.0405 11.5421-14.027 11.5421-4.0694.018-8.7871-1.0984-12.4244-2.953m-8.319-19.555c-.288-.8103-.8103-2.3589-1.9087-2.3589-2.1247 0-4.8437 3.5653-5.762 5.24-1.6206 2.935-2.593 6.2842-2.593 9.6153 0 3.3492 1.3866 6.3923 5.186 6.3923 2.5928 0 6.104-1.5485 7.8327-3.4572.3961-.3962 1.3865-1.7286 2.0707-1.7286.3422 0 .6843.288.6843.6302 0 1.5485-3.6373 4.3756-4.7177 5.1858-3.061 2.0708-6.8604 3.2232-10.6058 3.2232-5.762 0-9.7415-3.7453-9.7415-9.5614 0-10.4257 10.948-17.5743 20.5634-17.5743 2.4849 0 7.0225 1.0444 7.0225 4.2675 0 2.0168-1.8367 3.2232-3.6913 3.2232-2.3229.018-3.4753-.9724-4.3396-3.0971M.9293 30.9129l3.6012-9.1293.5943.4682c2.1067 1.6386 4.6276 2.953 7.3286 2.953 1.1524 0 3.007-.4681 3.007-1.9267 0-1.4585-1.5485-1.5845-2.6109-1.8006l-2.3588-.4322c-4.5917-.8103-8.445-3.5112-8.445-8.571C2.0457 4.8035 9.0322.5 16.0727.5c3.6913 0 7.0765.9003 10.2456 2.827l-3.1691 8.283c-2.0167-1.3685-4.2855-2.449-6.8244-2.449-1.0264 0-2.539.3782-2.539 1.7107 0 1.2064 1.4586 1.3685 2.3589 1.5846l2.665.5942c4.9697 1.1164 8.571 3.7813 8.571 9.2733 0 7.7248-7.0405 11.5421-14.027 11.5421-4.0514.018-8.7691-1.0984-12.4244-2.953" fill="#e8112d" fill-rule="nonzero"/>
</svg>
